#!OML:ASF H:\Terrain\Patient Classification 1\Animal1\Tuesday\Animal1.ASF
:FULLY-SPECIFIED
:DEGREES
2732
root 12.6522 16.8106 -3.46693 -168.522 -147.96 -183.326
lowerback -4.1979 -1.1548 4.77569
upperback -6.52438 -1.52352 6.42683
thorax -4.37952 -0.86463 4.02228
lowerneck -2.80166 -4.48022 -8.64491
upperneck 11.0877 -5.87161 3.22338
head 4.13051 -3.11962 2.11414
rclavicle 7.45443e-014 3.65764e-014
rhumerus -38.2203 3.27619 -75.2215
rradius 20.5301
rwrist -14.2671
rhand -10.1093 18.7221
rfingers 7.12502
rthumb 15.8784 -10.6469
lclavicle 7.45443e-014 3.65764e-014
lhumerus -43.1827 -6.6955 98.2995
lradius 34.2533
lwrist -34.5755
lhand 22.8592 26.6887
lfingers 7.12502
lthumb 47.1887 49.2714
rfemur -22.594 16.4737 9.87652
rtibia 32.1401
rfoot -17.926 -37.8107
rtoes 44.7629
lfemur -11.8893 -41.8906 -22.4345
ltibia 13.7227
lfoot -49.1557 46.5748
ltoes 53.7011
2733
root 12.6448 16.8159 -3.46746 -168.508 -147.939 -182.921
lowerback -4.50583 -1.10683 4.55925
upperback -6.56058 -1.48226 6.42666
thorax -4.2385 -0.834231 4.1351
lowerneck -2.79639 -4.54487 -8.40722
upperneck 11.138 -5.92931 2.78418
head 4.1292 -3.16062 1.93814
rclavicle 8.17005e-014 4.92986e-014
rhumerus -38.1423 3.11018 -75.0108
rradius 20.4366
rwrist -14.3934
rhand -10.3441 18.6353
rfingers 7.12502
rthumb 15.6523 -10.7515
lclavicle 8.17005e-014 4.92986e-014
lhumerus -43.146 -7.44556 98.8197
lradius 34.2889
lwrist -33.7743
lhand 25.9213 26.3831
lfingers 7.12502
lthumb 50.0056 47.6029
rfemur -22.7913 16.9321 9.30296
rtibia 32.0637
rfoot -24.2593 -35.1512
rtoes 50.2211
lfemur -12.0072 -41.3928 -22.6594
ltibia 13.3982
lfoot -47.8639 46.8645
ltoes 53.2843
2734
root 12.6383 16.8173 -3.46553 -168.378 -147.932 -182.721
lowerback -4.82075 -1.06145 4.54423
upperback -6.61555 -1.44638 6.46806
thorax -4.11944 -0.815336 4.18054
lowerneck -2.71898 -4.61105 -8.64081
upperneck 11.1886 -6.01662 2.82607
head 4.14584 -3.21307 1.98451
rclavicle -9.28324e-014 -7.95139e-015
rhumerus -37.9773 2.89537 -74.7996
rradius 20.1558
rwrist -14.3727
rhand -10.2965 18.8038
rfingers 7.12502
rthumb 15.6981 -10.5795
lclavicle -9.28324e-014 -7.95139e-015
lhumerus -43.2608 -8.1266 99.3079
lradius 34.4258
lwrist -33.0608
lhand 28.4293 26.5687
lfingers 7.12502
lthumb 52.2894 46.5009
rfemur -23.0095 17.2324 8.99774
rtibia 32.0784
rfoot -29.2088 -31.9775
rtoes 54.1054
lfemur -12.0324 -40.9693 -22.7185
ltibia 12.9094
lfoot -46.1675 47.6237
ltoes 52.6155
2735
root 12.633 16.8124 -3.46327 -168.353 -147.926 -182.557
lowerback -4.98296 -1.10784 4.50524
upperback -6.62996 -1.52077 6.55276
thorax -4.03769 -0.849409 4.28681
lowerneck -2.70677 -4.59718 -8.73536
upperneck 11.1961 -5.99547 2.84493
head 4.14854 -3.20601 2.00664
rclavicle -6.63941e-014 -5.24792e-014
rhumerus -37.8163 2.51387 -74.3273
rradius 19.7472
rwrist -13.3978
rhand -9.9057 19.2751
rfingers 7.12502
rthumb 16.0745 -10.0782
lclavicle -6.63941e-014 -5.24792e-014
lhumerus -43.3746 -8.5178 99.6461
lradius 34.6444
lwrist -32.3121
lhand 29.8694 26.7256
lfingers 7.12502
lthumb 53.5895 45.8374
rfemur -23.0935 17.3738 8.81541
rtibia 32.0878
rfoot -29.7532 -31.6621
rtoes 54.1795
lfemur -12.0239 -41.3337 -22.6882
ltibia 12.5034
lfoot -46.6069 47.8073
ltoes 52.5192
2736
root 12.627 16.8118 -3.45844 -168.403 -147.836 -182.522
lowerback -4.97498 -1.10096 4.57309
upperback -6.62578 -1.51171 6.69303
thorax -4.03792 -0.845403 4.398
lowerneck -2.7142 -4.5577 -8.64698
upperneck 11.2871 -5.92072 2.57793
head 4.16328 -3.18049 1.91383
rclavicle -3.77691e-015 -6.36111e-015
rhumerus -37.7318 2.12369 -73.7186
rradius 19.4403
rwrist -12.4768
rhand -9.86309 19.2919
rfingers 7.12502
rthumb 16.1155 -10.058
lclavicle -3.77691e-015 -6.36111e-015
lhumerus -43.3831 -8.89039 100.069
lradius 34.7686
lwrist -31.5698
lhand 29.9458 26.3666
lfingers 7.12502
lthumb 53.6582 45.4331
rfemur -23.0249 17.6141 8.75688
rtibia 32.0366
rfoot -29.2741 -32.3499
rtoes 53.3373
lfemur -11.922 -42.1435 -22.6072
ltibia 12.3038
lfoot -48.7661 47.2696
ltoes 53.1244
2737
root 12.621 16.8172 -3.45033 -168.411 -147.778 -182.577
lowerback -4.96899 -1.05458 4.7632
upperback -6.65882 -1.45011 6.85653
thorax -4.08241 -0.820597 4.468
lowerneck -2.68027 -4.52675 -8.48077
upperneck 11.5025 -5.84993 2.13825
head 4.20261 -3.16553 1.75534
rclavicle 1.41137e-014 -2.8625e-014
rhumerus -37.6666 1.89355 -73.2406
rradius 19.1897
rwrist -11.9963
rhand -9.37177 18.9127
rfingers 7.12502
rthumb 16.5885 -10.3983
lclavicle 1.41137e-014 -2.8625e-014
lhumerus -43.4375 -9.1283 100.516
lradius 34.818
lwrist -31.2657
lhand 30.0704 26.7159
lfingers 7.12502
lthumb 53.7702 45.7081
rfemur -22.907 17.9519 8.77041
rtibia 31.9632
rfoot -32.4274 -30.0711
rtoes 55.5325
lfemur -11.7078 -42.3973 -22.6077
ltibia 12.18
lfoot -49.1816 47.2615
ltoes 53.1667
2738
root 12.615 16.8158 -3.44604 -168.43 -147.8 -182.589
lowerback -4.94605 -1.06541 4.90256
upperback -6.70943 -1.46075 7.00038
thorax -4.15084 -0.83026 4.5459
lowerneck -2.44539 -4.46267 -8.34718
upperneck 11.5116 -5.76734 1.87592
head 4.15082 -3.13482 1.66385
rclavicle -2.28602e-014 3.02153e-014
rhumerus -37.587 1.65687 -72.9246
rradius 18.848
rwrist -11.4847
rhand -9.31025 18.7931
rfingers 7.12502
rthumb 16.6478 -10.5129
lclavicle -2.28602e-014 3.02153e-014
lhumerus -43.6246 -9.00149 100.75
lradius 34.95
lwrist -31.5493
lhand 30.2759 26.9926
lfingers 7.12502
lthumb 53.9549 45.8611
rfemur -22.7258 18.1635 8.82213
rtibia 31.8374
rfoot -35.2298 -27.4117
rtoes 57.5027
lfemur -11.5621 -42.1776 -22.684
ltibia 12.1585
lfoot -48.3817 47.5329
ltoes 52.7559
